<?xml version="1.0" encoding="UTF-8"?>
<svg width="12px" height="20px" viewBox="0 0 12 20" version="1.1" xmlns="http://www.w3.org/2000/svg" xmlns:xlink="http://www.w3.org/1999/xlink">
    <title>icon/5-gallon</title>
    <g id="icon/5-gallon" stroke="none" stroke-width="1" fill="none" fill-rule="evenodd">
        <path d="M6.49763507,0 C6.99763507,0 7.49763507,0.3 7.49763507,1 L7.49763507,1 L7.49763507,1.8 C7.49763507,2.1 7.29763507,2.4 7.19763507,2.6 L7.19763507,2.6 L7.22473507,2.6061 C7.29763507,2.643 7.29763507,2.85 7.29763507,3.3 C7.49763507,3.7 7.79763507,4 8.09763507,4.1 C8.49763507,4.2 10.0976351,4.5 10.5976351,5.1 C11.3976351,5.9 11.1976351,7.1 11.0976351,7.4 L11.0976351,7.4 L11.0976351,16.6 C11.1976351,16.9 11.3976351,18.1 10.5976351,18.9 C9.79763507,19.8 6.89763507,19.9 6.39763507,19.9 L6.39763507,19.9 L4.79763507,19.9 C4.29763507,19.9 1.49763507,19.8 0.597635073,18.9 C-0.202364927,18.1 -0.00236492664,16.9 0.0976350734,16.6 L0.0976350734,16.6 L0.0976350734,7.4 C-0.00236492664,7.1 -0.202364927,5.9 0.597635073,5.1 C0.997635073,4.6 2.49763507,4.2 3.09763507,4.1 C3.39763507,4 3.69763507,3.7 3.79763507,3.4 L3.79763507,3.4 L3.79763507,3.2 C3.89763507,3.1 3.89763507,3 3.89763507,2.9 L3.89763507,2.9 L3.89763507,2.6 L3.89763507,2.6 L3.85506948,2.51370262 C3.77110446,2.33877551 3.69763507,2.14285714 3.69763507,1.8 L3.69763507,1.8 L3.69763507,1 C3.69763507,0.3 4.19763507,0 4.69763507,0 L4.69763507,0 Z M6.59763507,3.8 L4.49763507,3.8 L4.435877,3.95634861 C4.20672598,4.45371901 3.75218053,4.71818182 3.29763507,4.9 C1.99763507,5.2 1.29763507,5.6 1.19763507,5.7 C0.597635073,6.2 0.897635073,7.2 0.897635073,7.2 L0.897635073,7.2 L0.897635073,16.8 C0.897635073,16.8 0.697635073,17.7 1.19763507,18.3 C1.59763507,18.7 3.59763507,19 4.79763507,19 L4.79763507,19 L6.39763507,19 C7.59763507,19 9.49763507,18.8 9.99763507,18.3 C10.5976351,17.8 10.2976351,16.8 10.2976351,16.8 L10.2976351,16.8 L10.2976351,7.1 C10.2976351,7.1 10.4976351,6.2 9.99763507,5.6 C9.89763507,5.5 9.19763507,5.2 7.89763507,4.9 C7.29763507,4.7 6.79763507,4.3 6.59763507,3.8 L6.59763507,3.8 Z M8.99763507,10.4 C9.19763507,10.4 9.39763507,10.5 9.29763507,10.8 L9.29763507,10.8 L9.29763507,14.3 C9.29763507,14.5 9.09763507,14.7 8.89763507,14.7 L8.89763507,14.7 L2.19763507,14.7 C1.99763507,14.7 1.79763507,14.5 1.79763507,14.3 L1.79763507,14.3 L1.79763507,10.8 C1.79763507,10.6 1.99763507,10.4 2.19763507,10.4 L2.19763507,10.4 Z M8.59763507,11.1 L2.59763507,11.1 L2.59763507,13.9 L8.59763507,13.9 L8.59763507,11.1 Z M6.4397647,0.800462963 L4.65550544,0.800462963 C4.59763507,0.802777778 4.59763507,0.816666667 4.59763507,0.9 L4.59763507,0.9 L4.59763507,1.7 C4.59763507,1.9 4.69763507,2 4.69763507,2.1 C4.69763507,2.2 4.79763507,2.2 4.79763507,2.4 L4.79763507,2.4 L4.79763507,2.9 L6.29763507,2.9 L6.29763507,2.9 L6.29763507,2.4 C6.29763507,2.3 6.39763507,2.2 6.39763507,2.1 C6.49763507,2 6.49763507,1.9 6.49763507,1.7 L6.49717211,0.85787037 C6.4948573,0.8 6.48096841,0.8 6.39763507,0.8 Z" id="Combined-Shape" fill="#0078B7" fill-rule="nonzero"></path>
    </g>
</svg>