<?xml version="1.0" encoding="UTF-8"?>
<svg width="17px" height="35px" viewBox="0 0 17 35" version="1.1" xmlns="http://www.w3.org/2000/svg" xmlns:xlink="http://www.w3.org/1999/xlink">
    <!-- Generator: Sketch 63.1 (92452) - https://sketch.com -->
    <title>qs-dispenser</title>
    <desc>Created with Sketch.</desc>
    <g id="Global-Styles" stroke="none" stroke-width="1" fill="none" fill-rule="evenodd">
        <g id="Iconography-Library---1" transform="translate(-274.000000, -979.000000)" fill="#777777">
            <g id="Group-20" transform="translate(274.000000, 979.000000)">
                <path d="M14.692,15.788 C14.6929975,16.3579884 14.3319619,16.8724439 13.7997556,17.0737265 L13.6739867,17.1145032 L10.2341477,18.0488223 L10.2341477,18.5230959 L10.3012235,18.5230959 C10.4974543,18.5230959 10.6661919,18.6517427 10.723466,18.8323279 L10.740943,18.9126779 L10.9001634,20.2528397 L14.4951576,20.2528397 C14.5520705,20.2528397 14.6042406,20.2758758 14.6415049,20.3131402 C14.6667995,20.3384348 14.6854693,20.370053 14.6951054,20.4051844 L14.702483,20.460165 L14.702483,21.2311984 L16.7919971,21.2311984 C16.8631382,21.2311984 16.9159858,21.272528 16.9532502,21.3280858 C16.9690593,21.3497668 16.9845673,21.3726524 16.9931494,21.3985493 L17,21.4398788 L17,34.7059902 C17,34.7520625 16.9762863,34.7906819 16.95054,34.8252361 C16.9220836,34.8633474 16.8856238,34.8938364 16.8403032,34.906699 L16.7919971,34.9133155 L0.208680403,34.9133155 C0.112696452,34.9133155 0.031768806,34.8488557 0.00745914501,34.7607136 L4.90274488e-13,34.7053127 L4.90274488e-13,21.4398788 C4.90274488e-13,21.3822885 0.0230361484,21.3301184 0.0609780399,21.292854 C0.0858209451,21.2675594 0.117589751,21.2485885 0.152871695,21.2387517 L0.20800287,21.2311984 L2.2968395,21.2311984 L2.2968395,20.460165 C2.2968395,20.4032522 2.32055319,20.3510821 2.35781754,20.3131402 C2.38311214,20.2882973 2.41473038,20.269778 2.45006251,20.2601922 L2.50551991,20.2528397 L6.09915906,20.2528397 L6.25973457,18.9126779 C6.28285541,18.7188185 6.43047308,18.5659394 6.61725538,18.5307486 L6.69945399,18.5230959 L6.7658523,18.5230959 L6.7658523,18.0488223 L3.32601331,17.1145032 C2.76922573,16.9628808 2.36783536,16.4788486 2.31333464,15.9124859 L2.30737927,15.7882233 L2.30737927,15.7882233 L14.692,15.788 Z M13.0723367,23.6188275 L3.92834084,23.6188275 C3.85787733,23.6188275 3.80502969,23.658802 3.7670878,23.7116496 C3.75082699,23.7346857 3.73486731,23.7586253 3.72603427,23.7854757 L3.7189829,23.8281854 L3.7189829,30.4896975 C3.7189829,30.5856815 3.78391322,30.6666091 3.87260428,30.6909188 L3.92834084,30.6983779 L13.0723367,30.6983779 C13.1683206,30.6983779 13.2487778,30.6334476 13.2729306,30.5451486 L13.2803396,30.4896975 L13.2803396,23.8281854 C13.2803396,23.7827906 13.2566259,23.7462038 13.2322347,23.7116496 C13.1949703,23.658802 13.1421227,23.6188275 13.0723367,23.6188275 Z M12.8632498,24.035714 L12.8632498,30.2818979 L4.13593719,30.2818979 L4.13593719,24.035714 L12.8632498,24.035714 Z M6.73021402,25.388749 C6.63423007,25.388749 6.55377293,25.4536793 6.52962011,25.5419782 L6.52221115,25.5974294 L6.52221115,26.4999043 C6.52221115,26.6144076 6.61503328,26.7079072 6.73021402,26.7079072 C6.82676258,26.7079072 6.90684331,26.6429769 6.93085498,26.55507 L6.93821689,26.4999043 L6.93821689,25.5974294 C6.93821689,25.4822486 6.8460723,25.388749 6.73021402,25.388749 Z M10.2696505,25.388749 C10.1736665,25.388749 10.0932094,25.4536793 10.0690566,25.5419782 L10.0616476,25.5974294 L10.0616476,26.4999043 C10.0616476,26.6144076 10.1544697,26.7079072 10.2696505,26.7079072 C10.366199,26.7079072 10.4462798,26.6429769 10.4702914,26.55507 L10.4776533,26.4999043 L10.4776533,25.5974294 C10.4776533,25.4822486 10.3855087,25.388749 10.2696505,25.388749 Z M2.06512295,15.3718863 C1.78706309,15.3718863 1.55565143,15.1677319 1.5121497,14.9021664 L1.50480252,14.8115659 L1.50480252,13.0520107 C1.50480252,12.773341 1.70840819,12.5424172 1.97435782,12.4990191 L2.06512295,12.4916902 L2.30700251,12.4916902 L2.30737927,12.4905309 L14.692,12.49 L14.6929975,12.4916902 L14.934877,12.4916902 C15.2129369,12.4916902 15.4443486,12.6947471 15.4878503,12.9610809 L15.4951975,13.0520107 L15.4951975,14.8115659 C15.4951975,15.089016 15.2915918,15.3209155 15.0256422,15.3645209 L14.934877,15.3718863 L2.06512295,15.3718863 Z M14.692,4.902 L14.6920997,12.0738628 L14.6920997,12.0738628 L2.307,12.073 L2.30737927,4.90201709 L2.30737927,4.90201709 L14.692,4.902 Z M14.692,1.604 L14.6929975,1.60507752 L14.934877,1.60507752 C15.2129369,1.60507752 15.4443486,1.80813439 15.4878503,2.07397425 L15.4951975,2.16472042 L15.4951975,3.92495317 C15.4951975,4.20362281 15.2915918,4.43454665 15.0256422,4.47794472 L14.934877,4.4852736 L2.06512295,4.4852736 C1.78706309,4.4852736 1.55565143,4.28221673 1.5121497,4.01588295 L1.50480252,3.92495317 L1.50480252,2.16472042 C1.50480252,1.88666056 1.70840819,1.6557977 1.97435782,1.61240572 L2.06512295,1.60507752 L2.30700251,1.60507752 L2.30705098,1.60446014 L14.692,1.604 Z M13.3108286,8.17124146e-14 C14.0066678,8.17124146e-14 14.5839299,0.517222379 14.6792052,1.18671112 L2.32079485,1.18671112 C2.40993101,0.560361264 2.92094095,0.0672872329 3.55623523,0.00634479422 L3.68917142,8.17124146e-14 L13.3108286,8.17124146e-14 Z" id="qs-dispenser"></path>
            </g>
        </g>
    </g>
</svg>