<?xml version="1.0" encoding="UTF-8"?>
<svg width="22px" height="24px" viewBox="0 0 22 24" version="1.1" xmlns="http://www.w3.org/2000/svg" xmlns:xlink="http://www.w3.org/1999/xlink">
    <!-- Generator: Sketch 63.1 (92452) - https://sketch.com -->
    <title>qs-frequency</title>
    <desc>Created with Sketch.</desc>
    <g id="Global-Styles" stroke="none" stroke-width="1" fill="none" fill-rule="evenodd">
        <g id="Iconography-Library---1" transform="translate(-444.000000, -985.000000)" fill="#0078B7">
            <g id="Group-21" transform="translate(444.000000, 985.000000)">
                <path d="M20.4105997,19.4219805 C19.8767085,20.5695397 18.907113,21.5029289 17.6306834,21.9687029 C17.0722455,22.1712134 16.5015342,22.2700139 15.9430962,22.2700139 C15.2189679,22.2700139 14.507113,22.1037099 13.8627615,21.8030126 C12.7213389,21.2691213 11.7824268,20.3056625 11.3160391,19.0292329 C11.1135286,18.470795 11.0214784,17.9006974 11.0214784,17.3416457 C11.0214784,16.6181311 11.1810321,15.9062762 11.4817294,15.2619247 C11.6167364,14.9790237 11.4940028,14.6415063 11.2117155,14.512636 C10.9294282,14.3837657 10.5919107,14.5003626 10.4630404,14.7826499 C10.0887029,15.5742817 9.89232915,16.4518271 9.89232915,17.3416457 C9.89232915,18.028954 10.0089261,18.7285356 10.26053,19.4097071 C10.4200837,19.8576848 10.6287308,20.2627057 10.8803347,20.6431799 L2.60808926,20.6431799 C1.79191074,20.6431799 1.12914923,19.9865551 1.12914923,19.1703766 L1.12914923,7.83592748 L19.2507671,7.83592748 L19.2507671,12.2788842 C19.0114365,12.1254672 18.7598326,11.9781869 18.5020921,11.8554533 C17.7104603,11.4872524 16.8390516,11.2908787 15.9430962,11.2908787 C15.6914923,11.2908787 15.4337517,11.3092887 15.1760112,11.3461088 L15.9430962,9.94755927 C16.0903766,9.67079498 15.9921897,9.32714086 15.7221757,9.1804742 C15.4460251,9.0325802 15.102371,9.13076709 14.9550907,9.40078103 L13.5743375,11.9174338 C13.5682008,11.9174338 13.5682008,11.9290934 13.5682008,11.9290934 C13.5559275,11.9536402 13.5497908,11.9781869 13.5436541,12.0027336 C13.5313808,12.033417 13.5252441,12.0579637 13.5191074,12.0886471 C13.5129707,12.1070572 13.506834,12.1254672 13.506834,12.1444909 C13.506834,12.1622873 13.5129707,12.186834 13.5129707,12.2052441 C13.5129707,12.2420642 13.5129707,12.2733612 13.5252441,12.303431 C13.5252441,12.3224547 13.5313808,12.340251 13.5375174,12.3586611 L13.5375174,12.3776848 C13.5436541,12.3954812 13.5559275,12.4022315 13.5620642,12.4200279 C13.5743375,12.4445746 13.5866109,12.4691213 13.6050209,12.5004184 C13.6172943,12.5182148 13.6295676,12.5366248 13.641841,12.5488982 C13.660251,12.5673082 13.6786611,12.5857183 13.6970711,12.5979916 C13.7093445,12.610265 13.7154812,12.6225384 13.7277545,12.6348117 L16.1885635,14.5064993 C16.4340307,14.6905997 16.7899582,14.6415063 16.9740586,14.3966527 C17.1642957,14.1505718 17.1152022,13.7946444 16.869735,13.6050209 L15.3601116,12.456848 C15.5564854,12.4323013 15.7528591,12.4200279 15.9430962,12.4200279 C16.6733612,12.4200279 17.3790795,12.5801953 18.0295676,12.8802789 C19.1709902,13.4141702 20.1099024,14.377629 20.5701534,15.6601953 C20.7788006,16.2186332 20.8708508,16.7832078 20.8708508,17.3416457 C20.8708508,18.0657741 20.7112971,18.777629 20.4105997,19.4219805 M21.6317992,15.2735844 C21.3433752,14.4880893 20.9138075,13.7946444 20.3737796,13.21841 L20.3737796,4.00050209 C20.3737796,2.56451883 19.213947,1.39854951 17.7718271,1.39854951 L15.7651325,1.39854951 L15.7651325,0.557824268 C15.7651325,0.250990237 15.5135286,1.59872116e-14 15.2005579,1.59872116e-14 C14.8875872,1.59872116e-14 14.6359833,0.250990237 14.6359833,0.557824268 L14.6359833,1.39854951 L5.73779637,1.39854951 L5.73779637,0.557824268 C5.73779637,0.250990237 5.48619247,1.59872116e-14 5.17935844,1.59872116e-14 C4.86638773,1.59872116e-14 4.61478382,0.250990237 4.61478382,0.557824268 L4.61478382,1.39854951 L2.60808926,1.39854951 C1.16596932,1.39854951 0,2.56451883 0,4.00050209 L0,19.1703766 C0,20.6069735 1.16596932,21.7723291 2.60808926,21.7723291 L11.8253835,21.7723291 C12.2917713,22.2018968 12.8195258,22.5639609 13.3902371,22.8278382 C14.1818689,23.1960391 15.0532775,23.3985495 15.9430962,23.3985495 C16.6365411,23.3985495 17.3361227,23.2758159 18.0172943,23.0303487 C19.5882845,22.4596374 20.7788006,21.3059414 21.4292887,19.9006416 C21.7974895,19.1090098 22,18.2376011 22,17.3416457 C22,16.6543375 21.8834031,15.9553696 21.6317992,15.2735844" id="qs-frequency"></path>
            </g>
        </g>
    </g>
</svg>