<?xml version="1.0" encoding="UTF-8"?>
<svg width="18px" height="34px" viewBox="0 0 18 34" version="1.1" xmlns="http://www.w3.org/2000/svg" xmlns:xlink="http://www.w3.org/1999/xlink">
    <!-- Generator: Sketch 63.1 (92452) - https://sketch.com -->
    <title>qs-water</title>
    <desc>Created with Sketch.</desc>
    <g id="Global-Styles" stroke="none" stroke-width="1" fill="none" fill-rule="evenodd">
        <g id="Iconography-Library---1" transform="translate(-132.000000, -980.000000)" fill="#0078B7">
            <g id="Group-19" transform="translate(130.000000, 980.000000)">
                <path d="M2.09949139,28.4314465 C2.10445572,28.4314465 2.10871086,28.4328649 2.11438439,28.4328649 L19.9015909,28.4328649 C20.0214441,29.0051816 20.2136347,30.5129206 19.2080026,31.5724512 C17.8785069,32.8709971 12.918258,33.0237622 12.4130109,33.0360154 L9.58383271,33.0360154 C9.07878555,33.0237622 4.12052061,32.8709971 2.79237049,31.5724512 C1.78461081,30.5115022 1.978929,29.0016357 2.09949139,28.4314465 Z M19.6546508,9.23919179 C20.292213,10.4994233 19.8447138,11.9724119 19.8447138,11.9724119 L19.8447138,11.9724119 L19.8447138,27.9972801 L2.15608479,27.9972801 L2.15608479,11.9724119 C2.15608479,11.9724119 2.13977341,11.9178042 2.11920688,11.8291554 C2.15112045,11.8355382 2.18374322,11.8419209 2.21991193,11.8419209 L2.21991193,11.8419209 L19.5099759,11.8419209 C19.696493,11.8419209 19.8447138,11.7447618 19.8447138,11.6249086 C19.8447138,11.503637 19.696493,11.4057687 19.5099759,11.4057687 L19.5099759,11.4057687 L2.21991193,11.4057687 C2.15466641,11.4057687 2.09793117,11.4213709 2.04686945,11.4419374 C1.97098607,10.9050802 1.9461644,10.0455414 2.33338241,9.26259508 L2.33338241,9.26259508 L19.5099759,9.26259508 C19.562456,9.26259508 19.610681,9.2533756 19.6546508,9.23919179 Z M12.4845222,1.07469589e-13 C12.7646525,1.07469589e-13 13.4759705,0.112052097 13.4759705,0.971590963 L13.4759705,0.971590963 L13.4759705,2.33394588 C13.4759705,3.12327489 13.1256304,3.36794561 13.0951352,3.66155047 C13.0951352,3.66155047 13.0625125,3.93317043 13.3185303,5.1572332 C13.7043299,6.30328502 14.4213215,6.84297898 15.1702266,7.09757837 C16.9119984,7.46068389 18.6821379,8.04363847 19.207648,8.59680705 C19.2778579,8.67127205 19.3409758,8.74857381 19.3998387,8.82658477 L19.3998387,8.82658477 L2.59982527,8.82658477 C2.65939727,8.74857381 2.72109685,8.67127205 2.79201589,8.59680705 C3.31681685,8.04363847 5.08766549,7.46068389 6.82872813,7.09757837 C7.57692409,6.84297898 8.29320648,6.30328502 8.68184287,5.1572332 C8.93715144,3.93317043 8.90381949,3.66155047 8.90381949,3.66155047 C8.8733243,3.36794561 8.52369339,3.12327489 8.52369339,2.33394588 L8.52369339,2.33394588 L8.52369339,0.971590963 C8.52369339,0.112052097 9.23642982,1.07469589e-13 9.51514168,1.07469589e-13 L9.51514168,1.07469589e-13 Z" id="qs-water"></path>
            </g>
        </g>
    </g>
</svg>