<?xml version="1.0" encoding="UTF-8"?>
<svg width="25px" height="25px" viewBox="0 0 25 25" version="1.1" xmlns="http://www.w3.org/2000/svg" xmlns:xlink="http://www.w3.org/1999/xlink">
    <title>icon/RR-business</title>
    <defs>
        <path d="M12.5,0 C19.403,0 25,5.597 25,12.5 C25,19.403 19.403,25 12.5,25 C5.597,25 0,19.403 0,12.5 C0,5.597 5.597,0 12.5,0" id="path-1"></path>
    </defs>
    <g id="icon/RR-business" stroke="none" stroke-width="1" fill="none" fill-rule="evenodd">
        <g id="RR-business" transform="translate(0.000000, -0.000500)">
            <mask id="mask-2" fill="white">
                <use xlink:href="#path-1"></use>
            </mask>
            <use id="Fill-1" fill="#ADD1E4" xlink:href="#path-1"></use>
            <path d="M24.4357,19.7373 C24.7467,19.7373 24.9997,19.9893 24.9997,20.3013 C24.9997,20.3332172 24.9970523,20.364517 24.9919658,20.3949917 L26.974,20.3946 C24.012,25.3476 19.651,27.9716 13.892,28.2676 C8.132,28.5626 3.501,25.9386 0,20.3946 L0.665435287,20.3949917 C0.660347659,20.364517 0.6577,20.3332172 0.6577,20.3013 C0.6577,19.9893 0.9107,19.7373 1.2227,19.7373 L24.4357,19.7373 Z" id="Combined-Shape" fill="#0A1A5C" mask="url(#mask-2)"></path>
            <path d="M5.9209,14.7363 C7.2219,14.7363 7.2369,18.1243 7.2369,18.1583 C7.2369,18.7933 6.7839,19.3243 6.1839,19.4473 L6.1839,19.4473 L6.1839,20.7893 C6.1839,20.9343 6.0669,21.0523 5.9209,21.0523 C5.7759,21.0523 5.6579,20.9343 5.6579,20.7893 L5.6579,20.7893 L5.6579,19.4473 C5.0579,19.3243 4.6059,18.7933 4.6059,18.1583 C4.6059,18.1243 4.6199,14.7363 5.9209,14.7363 Z M20.1318,8.4209 C20.2778,8.4209 20.3948,8.5389 20.3948,8.6839 L20.3948,8.6839 L20.3948,20.2639 C20.3948,20.6979 20.0408,21.0529 19.6058,21.0529 L19.6058,21.0529 L17.4998,21.0529 C17.0648,21.0529 19.7858,19.9709 19.8678,19.9999 L19.8678,19.9999 L19.8678,8.9469 L16.9738,8.9469 C16.8278,8.9469 16.7108,8.8299 16.7108,8.6839 C16.7108,8.5389 16.8278,8.4209 16.9738,8.4209 L16.9738,8.4209 Z M14.8682,16.3155 C15.0142,16.3155 15.1322,16.4335 15.1322,16.5795 C15.1322,16.7245 15.0142,16.8415 14.8682,16.8415 L14.8682,16.8415 L14.0792,16.8415 L14.0792,19.2115 C14.0792,19.3555 13.9612,19.4735 13.8152,19.4735 C13.6712,19.4735 13.5532,19.3555 13.5532,19.2115 L13.5532,19.2115 L13.5532,16.8415 L11.4472,16.8415 L11.4472,19.2115 C11.4472,19.3555 11.3292,19.4735 11.1842,19.4735 C11.0392,19.4735 10.9212,19.3555 10.9212,19.2115 L10.9212,19.2115 L10.9212,16.8415 L10.1322,16.8415 C9.9862,16.8415 9.8682,16.7245 9.8682,16.5795 C9.8682,16.4335 9.9862,16.3155 10.1322,16.3155 L10.1322,16.3155 Z M15.9209,5.2632 C16.0669,5.2632 16.1849,5.3812 16.1849,5.5262 L16.1849,5.5262 L16.1849,19.2112 C16.1849,19.3552 16.0669,19.4732 15.9209,19.4732 C15.7749,19.4732 15.6579,19.3552 15.6579,19.2112 L15.6579,19.2112 L15.6579,5.7892 L9.3419,5.7892 L9.3419,19.2112 C9.3419,19.3552 9.2239,19.4732 9.0789,19.4732 C8.9339,19.4732 8.8159,19.3552 8.8159,19.2112 L8.8159,19.2112 L8.8159,5.5262 C8.8159,5.3812 8.9339,5.2632 9.0789,5.2632 L9.0789,5.2632 Z M5.9209,15.2623 C5.4839,15.2623 5.1319,16.8463 5.1319,18.1583 C5.1319,18.5933 5.4859,18.9473 5.9209,18.9473 C6.3569,18.9473 6.7109,18.5933 6.7109,18.1583 C6.7109,16.8463 6.3579,15.2623 5.9209,15.2623 Z M18.553,16.3155 C18.698,16.3155 18.815,16.4335 18.815,16.5795 L18.815,16.5795 L18.815,18.1585 C18.815,18.3025 18.698,18.4205 18.553,18.4205 L18.553,18.4205 L17.5,18.4205 C17.354,18.4205 17.236,18.3025 17.236,18.1585 L17.236,18.1585 L17.236,16.5795 C17.236,16.4335 17.354,16.3155 17.5,16.3155 L17.5,16.3155 Z M12.313,17.9707 C12.413,17.8737 12.587,17.8737 12.687,17.9707 C12.734,18.0217 12.763,18.0897 12.763,18.1577 C12.763,18.2267 12.734,18.2947 12.687,18.3447 C12.637,18.3927 12.568,18.4207 12.5,18.4207 C12.432,18.4207 12.363,18.3927 12.313,18.3447 C12.266,18.2947 12.237,18.2267 12.237,18.1577 C12.237,18.0897 12.266,18.0217 12.313,17.9707 Z M18.289,16.8415 L17.764,16.8415 L17.764,17.8945 L18.289,17.8945 L18.289,16.8415 Z M7.5,13.1582 C7.646,13.1582 7.763,13.2752 7.763,13.4212 L7.763,13.4212 L7.763,15.0002 C7.763,15.1452 7.645,15.2632 7.5,15.2632 C7.354,15.2632 7.237,15.1452 7.237,15.0002 L7.237,15.0002 L7.237,13.6842 L6.71,13.6842 L6.71,13.9472 C6.71,14.0932 6.593,14.2112 6.447,14.2112 C6.302,14.2112 6.184,14.0932 6.184,13.9472 L6.184,13.9472 L6.184,13.4212 C6.184,13.2752 6.302,13.1582 6.447,13.1582 L6.447,13.1582 Z M14.342,13.1585 C14.487,13.1585 14.605,13.2755 14.605,13.4205 L14.605,13.4205 L14.605,15.0005 C14.605,15.1455 14.487,15.2625 14.342,15.2625 L14.342,15.2625 L13.289,15.2625 C13.145,15.2625 13.026,15.1455 13.026,15.0005 L13.026,15.0005 L13.026,13.4205 C13.026,13.2755 13.145,13.1585 13.289,13.1585 L13.289,13.1585 Z M11.71,13.1585 C11.856,13.1585 11.974,13.2755 11.974,13.4205 L11.974,13.4205 L11.974,15.0005 C11.974,15.1455 11.856,15.2625 11.71,15.2625 L11.71,15.2625 L10.658,15.2625 C10.513,15.2625 10.395,15.1455 10.395,15.0005 L10.395,15.0005 L10.395,13.4205 C10.395,13.2755 10.513,13.1585 10.658,13.1585 L10.658,13.1585 Z M18.553,13.1585 C18.698,13.1585 18.815,13.2755 18.815,13.4205 L18.815,13.4205 L18.815,15.0005 C18.815,15.1455 18.698,15.2625 18.553,15.2625 L18.553,15.2625 L17.5,15.2625 C17.354,15.2625 17.236,15.1455 17.236,15.0005 L17.236,15.0005 L17.236,13.4205 C17.236,13.2755 17.354,13.1585 17.5,13.1585 L17.5,13.1585 Z M14.079,13.6845 L13.553,13.6845 L13.553,14.7365 L14.079,14.7365 L14.079,13.6845 Z M11.447,13.6845 L10.921,13.6845 L10.921,14.7365 L11.447,14.7365 L11.447,13.6845 Z M18.289,13.6845 L17.764,13.6845 L17.764,14.7365 L18.289,14.7365 L18.289,13.6845 Z M8.0264,8.4209 C8.1714,8.4209 8.2894,8.5389 8.2894,8.6839 C8.2894,8.8299 8.1714,8.9469 8.0264,8.9469 L8.0264,8.9469 L5.1314,8.9469 L5.1314,13.9469 C5.1314,14.0929 5.0134,14.2109 4.8684,14.2109 C4.7234,14.2109 4.6054,14.0929 4.6054,13.9469 L4.6054,13.9469 L4.6054,8.6839 C4.6054,8.5389 4.7234,8.4209 4.8684,8.4209 L4.8684,8.4209 Z M11.71,10.0005 C11.856,10.0005 11.974,10.1185 11.974,10.2635 L11.974,10.2635 L11.974,11.8425 C11.974,11.9875 11.856,12.1055 11.71,12.1055 L11.71,12.1055 L10.658,12.1055 C10.513,12.1055 10.395,11.9875 10.395,11.8425 L10.395,11.8425 L10.395,10.2635 C10.395,10.1185 10.513,10.0005 10.658,10.0005 L10.658,10.0005 Z M18.553,10.0005 C18.698,10.0005 18.815,10.1185 18.815,10.2635 L18.815,10.2635 L18.815,11.8425 C18.815,11.9875 18.698,12.1055 18.553,12.1055 L18.553,12.1055 L17.5,12.1055 C17.354,12.1055 17.236,11.9875 17.236,11.8425 L17.236,11.8425 L17.236,10.2635 C17.236,10.1185 17.354,10.0005 17.5,10.0005 L17.5,10.0005 Z M14.342,10.0005 C14.487,10.0005 14.605,10.1185 14.605,10.2635 L14.605,10.2635 L14.605,11.8425 C14.605,11.9875 14.487,12.1055 14.342,12.1055 L14.342,12.1055 L13.289,12.1055 C13.145,12.1055 13.026,11.9875 13.026,11.8425 L13.026,11.8425 L13.026,10.2635 C13.026,10.1185 13.145,10.0005 13.289,10.0005 L13.289,10.0005 Z M7.4998,10.0001 C7.6458,10.0001 7.7628,10.1181 7.7628,10.2631 L7.7628,10.2631 L7.7628,11.8421 C7.7628,11.9871 7.6448,12.1051 7.4998,12.1051 L7.4998,12.1051 L6.4468,12.1051 C6.3018,12.1051 6.1838,11.9871 6.1838,11.8421 L6.1838,11.8421 L6.1838,10.2631 C6.1838,10.1181 6.3018,10.0001 6.4468,10.0001 L6.4468,10.0001 Z M11.447,10.5265 L10.921,10.5265 L10.921,11.5795 L11.447,11.5795 L11.447,10.5265 Z M18.289,10.5265 L17.764,10.5265 L17.764,11.5795 L18.289,11.5795 L18.289,10.5265 Z M14.079,10.5265 L13.553,10.5265 L13.553,11.5795 L14.079,11.5795 L14.079,10.5265 Z M7.2368,10.5261 L6.7108,10.5261 L6.7108,11.5791 L7.2368,11.5791 L7.2368,10.5261 Z M14.342,6.8425 C14.487,6.8425 14.605,6.9595 14.605,7.1055 L14.605,7.1055 L14.605,8.6845 C14.605,8.8295 14.487,8.9475 14.342,8.9475 L14.342,8.9475 L13.289,8.9475 C13.145,8.9475 13.026,8.8295 13.026,8.6845 L13.026,8.6845 L13.026,7.1055 C13.026,6.9595 13.145,6.8425 13.289,6.8425 L13.289,6.8425 Z M11.71,6.8425 C11.856,6.8425 11.974,6.9595 11.974,7.1055 L11.974,7.1055 L11.974,8.6845 C11.974,8.8295 11.856,8.9475 11.71,8.9475 L11.71,8.9475 L10.658,8.9475 C10.513,8.9475 10.395,8.8295 10.395,8.6845 L10.395,8.6845 L10.395,7.1055 C10.395,6.9595 10.513,6.8425 10.658,6.8425 L10.658,6.8425 Z M14.079,7.3685 L13.553,7.3685 L13.553,8.4215 L14.079,8.4215 L14.079,7.3685 Z M11.447,7.3685 L10.921,7.3685 L10.921,8.4215 L11.447,8.4215 L11.447,7.3685 Z" id="Combined-Shape" fill="#0A1A5C" mask="url(#mask-2)"></path>
        </g>
    </g>
</svg>